<svg id="Layer_1" data-name="Layer 1" xmlns="http://www.w3.org/2000/svg" viewBox="0 0 628.86 602"><defs><style>.cls-1{fill:none;stroke:#000;stroke-linecap:round;stroke-miterlimit:10;stroke-width:20px;}</style></defs><path class="cls-1" d="M665,468.81c9.31.43,104.89,70.56,255.28,30.53C1205,423.57,1233,348.19,1270,256.56c0,0-134.34-22.84-132.59,142.15.74,69.9,43.93,183.94-21.62,313.91-62.5,123.92-135.4,127.27-200.6,124.24S714,762.24,715.84,589.08c1.31-120.06,42.61-252.31,221-302.44,180.49-50.73,149.47,222.9,137.65,268.54-32.23,124.52-113,125.46-142.74,125.55C843,681,822.78,564.15,898.05,551.31s52.48,76,29.52,67.88" transform="translate(-655.03 -245.48)"/></svg>